<?xml version="1.0" encoding="UTF-8"?><svg version="1.1" width="135px" height="69px" viewBox="0 0 135.0 69.0" xmlns="http://www.w3.org/2000/svg" xmlns:xlink="http://www.w3.org/1999/xlink"><defs><clipPath id="i0"><path d="M12.8746875,0 L26.0709375,9.5503125 L21.065625,25.0509375 L8.19,29.2603125 L13.1953125,13.7596875 L0,4.209375 L12.8746875,0 Z"></path></clipPath><clipPath id="i1"><path d="M13.1784375,0 L26.356875,9.5746875 L26.356875,23.120625 L13.1784375,13.545 L0,23.120625 L0,9.5746875 L13.1784375,0 Z"></path></clipPath><clipPath id="i2"><path d="M21.2953125,0 L29.2771875,10.944375 L24.2709375,26.445 L7.981875,26.473125 L0,15.52875 L16.2890625,15.500625 L21.2953125,0 Z"></path></clipPath><clipPath id="i3"><path d="M7.981875,0 L12.9890625,15.500625 L29.2771875,15.52875 L21.2953125,26.473125 L5.0071875,26.445 L0,10.944375 L7.981875,0 Z"></path></clipPath><clipPath id="i4"><path d="M12.8146875,0 C19.711875,0 23.2378125,3.0178125 23.2378125,8.97375 C23.2378125,12.4621875 21.8278125,15.2053125 19.1625,16.7334375 C17.7909375,17.5565625 15.5971875,18.02625 13.2459375,18.02625 L8.229375,18.02625 L8.229375,26.1384375 L0,26.1384375 L0,0 L12.8146875,0 Z M11.5996875,6.1921875 L8.3475,6.1921875 L8.3475,14.90625 L10.565625,11.835 L11.5996875,11.835 C13.1278125,11.835 13.9115625,11.6390625 14.499375,11.2078125 C15.1265625,10.69875 15.4790625,9.915 15.4790625,8.97375 C15.4790625,7.91625 14.97,7.0546875 14.1853125,6.5840625 C13.755,6.309375 12.8146875,6.1921875 11.5996875,6.1921875 Z"></path></clipPath><clipPath id="i5"><path d="M12.4228125,0 C15.4003125,0 17.8303125,0.744375 19.6725,2.19375 C22.8459375,4.663125 24.2175,8.0334375 24.2175,13.363125 C24.2175,21.2390625 19.633125,26.1375 12.148125,26.1375 L0,26.1375 L0,0 L12.4228125,0 Z M10.54125,6.5053125 L8.3475,6.5053125 L8.3475,19.6321875 L10.62,19.6321875 C11.9915625,19.6321875 13.284375,19.2796875 14.068125,18.691875 C14.6559375,18.2615625 15.1265625,17.595 15.4003125,16.9284375 C15.75375,15.8315625 15.988125,14.3034375 15.988125,13.0884375 C15.988125,8.3859375 14.420625,6.5053125 10.54125,6.5053125 Z"></path></clipPath><clipPath id="i6"><path d="M13.558125,0 C17.4375,0 21.1209375,1.4109375 23.473125,3.879375 C25.35,5.8509375 26.5509375,8.548125 26.95875,11.5696875 L26.9803125,11.71125 C26.9896875,11.79 26.99625,11.86875 27.005625,11.9475 C27.076875,12.5803125 27.1171875,13.2225 27.1171875,13.8721875 C27.1171875,13.87875 27.11625,13.8853125 27.11625,13.8909375 L27.1167188,13.9008984 L27.1171875,13.9115625 C27.1171875,17.3203125 26.098125,20.7684375 24.256875,22.963125 L24.1978125,23.0109375 C24.106875,23.128125 24.0121875,23.2415625 23.9175,23.355 L27.705,27.950625 L23.169375,31.6884375 L19.0921875,26.74125 C18.1575,27.10875 17.1703125,27.3871875 16.1521875,27.560625 C16.1128125,27.5671875 16.0734375,27.5728125 16.033125,27.579375 C15.8278125,27.613125 15.620625,27.6421875 15.4134375,27.6675 C15.3253125,27.67875 15.238125,27.6890625 15.15,27.6984375 C14.97375,27.71625 14.795625,27.7303125 14.6184375,27.7425 C14.5284375,27.7490625 14.4384375,27.7565625 14.3484375,27.76125 C14.0859375,27.7753125 13.8225,27.78375 13.558125,27.78375 C9.6796875,27.78375 5.9953125,26.3728125 3.6440625,23.904375 C1.76625,21.9328125 0.56625,19.235625 0.1575,16.213125 C0.151875,16.16625 0.1434375,16.119375 0.136875,16.0715625 C0.1275,15.99375 0.1209375,15.9140625 0.1115625,15.8353125 C0.0403125,15.2034375 0,14.56125 0,13.9115625 L0,13.8721875 C0,10.4634375 1.0190625,7.014375 2.8603125,4.8196875 L2.919375,4.771875 C3.16125,4.460625 3.414375,4.1615625 3.6834375,3.879375 C5.49375,1.978125 8.11875,0.7078125 10.965,0.223125 C11.004375,0.215625 11.04375,0.21 11.0840625,0.2034375 C11.289375,0.170625 11.4965625,0.140625 11.70375,0.1153125 C11.791875,0.105 11.8790625,0.0946875 11.9671875,0.0853125 C12.1434375,0.0665625 12.3215625,0.0525 12.49875,0.0403125 C12.58875,0.0346875 12.6778125,0.02625 12.76875,0.0215625 C13.03125,0.0084375 13.2946875,0 13.558125,0 Z M13.5683203,6.58359375 L13.54875,6.58359375 L13.5253125,6.5840625 C12.9628125,6.585 12.770625,6.6740625 12.1565625,6.789375 C10.50375,7.27875 9.380625,8.65875 8.8659375,10.82625 L8.855625,10.8159375 C8.8265625,10.9640625 8.8021875,11.115 8.7759375,11.265 C8.645625,11.9475 8.570625,12.7003125 8.551875,13.5196875 C8.5490625,13.6378125 8.5425,13.7540625 8.5425,13.8721875 C8.5425,13.87875 8.5434375,13.8853125 8.5434375,13.891875 C8.5434375,13.8984375 8.5425,13.9040625 8.5425,13.9115625 C8.5425,17.473125 9.5971875,19.8403125 11.5425,20.7628125 C12.1321875,21.0459375 12.7978125,21.1959375 13.539375,21.19875 C13.5459375,21.19875 13.5515625,21.1996875 13.558125,21.1996875 L13.5683203,21.1992187 C13.5825,21.19875 13.5871875,21.1996875 13.591875,21.1996875 C14.154375,21.1978125 14.394375,21.1584375 15.0084375,21.043125 L15.2206362,20.9739776 C16.7528379,20.4280364 17.7589402,19.0298641 18.25125,16.9575 L18.2615625,16.9678125 C18.290625,16.8196875 18.315,16.66875 18.34125,16.51875 C18.4715625,15.8353125 18.5465625,15.0825 18.5653125,14.263125 C18.568125,14.1459375 18.5746875,14.0296875 18.5746875,13.9115625 C18.5746875,13.9040625 18.57375,13.8984375 18.57375,13.891875 C18.57375,13.8853125 18.5746875,13.87875 18.5746875,13.8721875 C18.5746875,10.310625 17.52,7.9425 15.57375,7.02 C14.985,6.736875 14.319375,6.586875 13.5778125,6.5840625 C13.57125,6.5840625 13.565625,6.583125 13.558125,6.583125 Z"></path></clipPath><clipPath id="i7"><path d="M5.28553125,0 L5.28553125,5.285625 L0,5.285625 L0,0 L5.28553125,0 Z"></path></clipPath><clipPath id="i8"><path d="M2.6428125,0 C4.11375,0 5.285625,1.171875 5.285625,2.6428125 C5.285625,4.1015625 4.11375,5.285625 2.6428125,5.285625 C1.1840625,5.285625 0,4.1015625 0,2.6428125 C0,1.171875 1.1840625,0 2.6428125,0 Z M2.6428125,0.3984375 C1.3959375,0.3984375 0.3984375,1.38375 0.3984375,2.6428125 C0.3984375,3.8765625 1.3959375,4.8871875 2.6428125,4.8871875 C3.88875,4.8871875 4.88625,3.8765625 4.88625,2.6428125 C4.88625,1.38375 3.88875,0.3984375 2.6428125,0.3984375 Z M2.866875,1.134375 C3.3778125,1.134375 3.8521875,1.49625 3.8521875,2.056875 C3.8521875,2.73 3.253125,2.9540625 3.07875,2.9540625 L3.88875,4.1634375 L3.365625,4.1634375 L2.58,2.9671875 L2.056875,2.9671875 L2.056875,4.1634375 L1.633125,4.1634375 L1.633125,1.134375 L2.866875,1.134375 Z M2.866875,1.5084375 L2.056875,1.5084375 L2.056875,2.5809375 L2.866875,2.5809375 C3.1284375,2.5809375 3.4153125,2.3690625 3.4153125,2.056875 C3.4153125,1.7203125 3.1284375,1.5084375 2.866875,1.5084375 Z"></path></clipPath></defs><g transform="translate(0.0 28.38131249999998)"><g clip-path="url(#i0)"><polygon points="0,0 26.0709375,0 26.0709375,29.2603125 0,29.2603125 0,0" stroke="none" fill="#002B49"></polygon></g></g><g transform="translate(22.642875 45.14587499999998)"><g clip-path="url(#i1)"><polygon points="0,0 26.356875,0 26.356875,23.120625 0,23.120625 0,0" stroke="none" fill="#002B49"></polygon></g></g><g transform="translate(5.501343749999933 0.0)"><g clip-path="url(#i2)"><polygon points="0,0 29.2771875,0 29.2771875,26.473125 0,26.473125 0,0" stroke="none" fill="#002B49"></polygon></g></g><g transform="translate(36.86428124999998 0.0)"><g clip-path="url(#i3)"><polygon points="0,0 29.2771875,0 29.2771875,26.473125 0,26.473125 0,0" stroke="none" fill="#002B49"></polygon></g></g><g transform="translate(50.962031250000116 27.591749999999983)"><g transform="translate(0.0 0.8614687500000002)"><g clip-path="url(#i4)"><polygon points="0,0 23.2378125,0 23.2378125,26.1384375 0,26.1384375 0,0" stroke="none" fill="#002B49"></polygon></g></g><g transform="translate(25.903593750000027 0.8620312500000296)"><g clip-path="url(#i5)"><polygon points="0,0 24.2175,0 24.2175,26.1375 0,26.1375 0,0" stroke="none" fill="#002B49"></polygon></g></g><g transform="translate(52.63078124999992 0.0)"><g clip-path="url(#i6)"><polygon points="0,0 27.705,0 27.705,31.6884375 0,31.6884375 0,0" stroke="none" fill="#002B49"></polygon></g></g><g transform="translate(78.75243750000004 31.531031250000005)"><g clip-path="url(#i7)"><g clip-path="url(#i8)"><polygon points="0,0 5.28553125,0 5.28553125,5.285625 0,5.285625 0,0" stroke="none" fill="#002B49"></polygon></g></g></g></g></svg>